<svg width="1078" height="1022" viewBox="0 0 1078 1022" fill="none" xmlns="http://www.w3.org/2000/svg">
<path d="M169.89 8.07979C218.5 -2.04021 268.74 -1.70021 317.88 4.08979C317.88 55.6198 317.89 107.14 317.88 158.67C295.33 156.47 272.51 155.98 250.01 158.9C221.77 162.56 192.98 172.01 172.11 192.16C153.54 209.71 143.82 234.9 141.7 260.03C138.64 295.23 146.68 330.33 157.63 363.58C167.29 392.45 179.73 420.33 193.5 447.46C227.33 513.62 268.71 575.62 312.47 635.56C313.9 637.94 316.67 639.93 316.48 642.95C316.45 697.04 316.49 751.14 316.46 805.23C223.09 718.3 143.64 615.85 86.25 501.74C60.86 451.21 38.3 399.08 21.92 344.9C9.68 304.15 1.11 262.04 0 219.4V208.52C0.58 180.76 4.7 152.82 14.83 126.87C25.81 98.2198 44.42 72.5298 68.41 53.3798C97.62 29.8298 133.44 15.7798 169.89 8.07979Z" fill="#192432"/>
<path d="M331.77 4.76953C384.62 57.5795 437.42 110.43 490.27 163.24C490.32 249.03 490.3 334.81 490.28 420.6C634.08 337.48 777.95 254.49 921.78 171.44C902.45 243.61 883.09 315.78 863.77 387.96C739.31 459.89 614.78 531.67 490.33 603.62C490.23 740.049 490.33 876.49 490.28 1012.92C437.43 959.64 384.59 906.34 331.77 853.02C331.76 570.27 331.76 287.52 331.77 4.76953Z" fill="#192432"/>
<path d="M361.42 10.9609C418.23 21.7609 473.13 40.8509 526.09 63.8209C600.11 96.1009 670.79 135.921 737.21 181.821C757.66 195.991 777.69 210.781 797.22 226.201C753.03 251.981 708.81 277.701 664.62 303.471C633.71 282.891 601.97 263.591 569.67 245.281C549.2 233.931 528.37 223.241 507.03 213.641C506.96 196.401 507.03 179.151 506.99 161.911C458.48 111.591 409.92 61.3009 361.42 10.9609Z" fill="#192432"/>
<path d="M896.72 315.43C936.43 356.05 972.43 400.51 1002.12 449.01C1025.72 487.67 1045.22 528.97 1058.45 572.34C1076.56 631.24 1082.27 694.04 1073.67 755.12C1065.76 821.68 1026.99 883.28 971.65 920.76C936.4 944.92 894.64 959.16 852.09 962.49C809.33 965.96 766.15 958.76 725.85 944.42C685.51 930.04 647.84 908.82 613.19 883.77C572.75 854.48 536.2 820.09 502.82 783.03C502.83 726.64 502.82 670.25 502.83 613.86C520.05 603.25 537.3 592.68 554.55 582.12C578.09 609.35 603.91 634.77 632.83 656.28C658.59 675.32 687.02 691.43 718.06 700C738.39 705.65 759.79 707.76 780.79 705.28C813.19 701.98 842.59 682.72 861.8 656.89C879.23 633.52 887.42 603.85 885.66 574.85C884 543.91 872.55 514.32 857.21 487.7C845.07 466.83 830.5 447.42 814.44 429.43C834.59 417.81 855.17 406.88 875.49 395.54C882.59 368.84 889.6 342.12 896.72 315.43Z" fill="#192432"/>
<path d="M504.18 870.07C549.8 921.29 596.61 971.43 643.97 1021.05C626.33 1015.36 609.7 1006.97 593.04 998.94C562.62 983.78 533.02 966.99 504.18 949.03C504.18 922.71 504.17 896.39 504.18 870.07Z" fill="#192432"/>
</svg>
