<svg width="76" height="73" viewBox="0 0 76 73" fill="none" xmlns="http://www.w3.org/2000/svg">
<path d="M11.9285 1.10082C15.3416 0.390262 18.8691 0.414135 22.3194 0.82067C22.3194 4.43876 22.3201 8.05615 22.3194 11.6742C20.7361 11.5198 19.1338 11.4854 17.554 11.6904C15.5712 11.9474 13.5498 12.6109 12.0844 14.0257C10.7806 15.2579 10.0981 17.0266 9.94923 18.7911C9.73437 21.2626 10.2989 23.7271 11.0677 26.0616C11.746 28.0887 12.6194 30.0463 13.5863 31.9511C15.9616 36.5965 18.867 40.9497 21.9396 45.1583C22.04 45.3254 22.2344 45.4651 22.2211 45.6771C22.219 49.475 22.2218 53.2735 22.2197 57.0714C15.6639 50.9677 10.0854 43.7744 6.0559 35.7623C4.27318 32.2144 2.68917 28.5542 1.53908 24.7501C0.679665 21.8889 0.0779368 18.9322 0 15.9383V15.1744C0.0407237 13.2253 0.330003 11.2635 1.04126 9.44146C1.81221 7.42985 3.11888 5.62607 4.80329 4.28148C6.85422 2.62796 9.36926 1.64146 11.9285 1.10082Z" fill="black"/>
<path d="M23.295 0.86853C27.0057 4.57649 30.713 8.28727 34.4238 11.9952C34.4273 18.0188 34.4259 24.0417 34.4245 30.0653C44.5211 24.2292 54.6227 18.4022 64.7215 12.571C63.3643 17.6383 62.005 22.7056 60.6484 27.7736C51.9097 32.824 43.166 37.8639 34.428 42.9158C34.421 52.495 34.428 62.0749 34.4245 71.6541C30.7137 67.9131 27.0036 64.1707 23.295 60.427C23.2943 40.5742 23.2943 20.7213 23.295 0.86853Z" fill="black"/>
<path d="M25.3765 1.3031C29.3653 2.0614 33.22 3.40178 36.9385 5.01458C42.1357 7.28106 47.0984 10.077 51.7619 13.2997C53.1978 14.2947 54.6042 15.3331 55.9754 16.4158C52.8727 18.2259 49.7679 20.0318 46.6651 21.8412C44.4948 20.3962 42.2663 19.0411 39.9984 17.7555C38.5611 16.9586 37.0986 16.208 35.6002 15.5339C35.5953 14.3235 35.6002 13.1123 35.5974 11.9018C32.1914 8.36867 28.7818 4.83764 25.3765 1.3031Z" fill="black"/>
<path d="M62.9617 22.6809C65.7499 25.533 68.2776 28.6547 70.3622 32.06C72.0192 34.7744 73.3884 37.6743 74.3173 40.7194C75.5889 44.855 75.9898 49.2644 75.386 53.553C74.8306 58.2264 72.1084 62.5515 68.2228 65.1831C65.7478 66.8795 62.8157 67.8793 59.8281 68.1131C56.8258 68.3568 53.794 67.8512 50.9644 66.8444C48.132 65.8347 45.487 64.3448 43.0541 62.5859C40.2147 60.5294 37.6484 58.1148 35.3047 55.5127C35.3054 51.5533 35.3047 47.594 35.3054 43.6347C36.5145 42.8897 37.7256 42.1475 38.9368 41.4061C40.5896 43.318 42.4026 45.1028 44.4331 46.6131C46.2418 47.95 48.238 49.0811 50.4174 49.6828C51.8448 50.0795 53.3474 50.2277 54.8219 50.0536C57.0968 49.8219 59.1611 48.4696 60.5099 46.6559C61.7337 45.0151 62.3087 42.9318 62.1851 40.8956C62.0686 38.7232 61.2647 36.6456 60.1876 34.7766C59.3352 33.3112 58.3122 31.9484 57.1846 30.6852C58.5994 29.8693 60.0443 29.1019 61.4711 28.3057C61.9696 26.431 62.4618 24.5549 62.9617 22.6809Z" fill="black"/>
<path d="M35.4002 61.624C38.6033 65.2203 41.89 68.7408 45.2153 72.2248C43.9768 71.8253 42.8091 71.2362 41.6394 70.6724C39.5035 69.608 37.4252 68.4291 35.4002 67.1681C35.4002 65.3201 35.3995 63.472 35.4002 61.624Z" fill="black"/>
</svg>
